<?xml version="1.0" encoding="UTF-8" standalone="no"?>
<svg width="59px" height="50px" viewBox="0 0 59 50" version="1.1" xmlns="http://www.w3.org/2000/svg" xmlns:xlink="http://www.w3.org/1999/xlink" xmlns:sketch="http://www.bohemiancoding.com/sketch/ns">
    <!-- Generator: Sketch 3.3.1 (12002) - http://www.bohemiancoding.com/sketch -->
    <title>Rectangle 1 Copy</title>
    <desc>Created with Sketch.</desc>
    <defs></defs>
    <g id="Page-1" stroke="none" stroke-width="1" fill="none" fill-rule="evenodd" sketch:type="MSPage">
        <path d="M25.8241391,29.8061546 L15.4444044,19.7825613 C13.8609535,18.2534405 11.3287857,18.2983857 9.79379352,19.8879166 L7.3090794,22.4609134 C5.76888597,24.0558304 5.81523771,26.5804142 7.40099172,28.111759 L22.6243937,42.8128274 C23.4161192,43.5773878 24.4450239,43.9484317 25.4678712,43.9296442 C26.4906232,43.9084145 27.5101344,43.4995184 28.2792832,42.7030415 L57.444946,12.5011136 C58.9821704,10.9092711 58.9423977,8.37653667 57.3558191,6.84439548 L55.3863997,4.94254931 C53.8049506,3.41536163 51.2673723,3.45891538 49.7300171,5.05089332 L25.8241391,29.8061546 Z M49.2074438,3.76149712 C48.038041,1.52326889 45.6949262,0 42.995067,0 L7.00493297,0 C3.12772393,0 0,3.13621532 0,7.00493297 L0,42.995067 C0,46.8722761 3.13621532,50 7.00493297,50 L42.995067,50 C46.8722761,50 50,46.8637847 50,42.995067 L50,21.974362 L46.3157895,25.7894737 L46.3157895,39.3237891 C46.3157895,43.1853643 43.1809877,46.3157895 39.3237891,46.3157895 L10.6762109,46.3157895 C6.81463573,46.3157895 3.68421053,43.1809877 3.68421053,39.3237891 L3.68421053,10.6762109 C3.68421053,6.81463573 6.81901231,3.68421053 10.6762109,3.68421053 L39.3237891,3.68421053 C42.0528249,3.68421053 44.41669,5.24987816 45.5685192,7.52971383 L49.2074438,3.76149712 L49.2074438,3.76149712 Z" id="Rectangle-1-Copy" fill="#AEA892" sketch:type="MSShapeGroup"></path>
    </g>
</svg>